<svg width="95" height="91" viewBox="0 0 95 91" fill="none" xmlns="http://www.w3.org/2000/svg">
<g filter="url(#filter0_d_57_213)">
<circle cx="61.6138" cy="39.9681" r="22.5" transform="rotate(7.68532 61.6138 39.9681)" fill="url(#paint0_linear_57_213)"/>
<g filter="url(#filter1_b_57_213)">
<path d="M57.1401 16.0266L56.478 10.8689C56.304 9.51334 55.0356 8.53352 53.68 8.70752C52.3245 8.88153 51.3447 10.1499 51.5187 11.5055L52.1553 16.4648L30.6649 19.2234L30.0284 14.264C29.8543 12.9085 28.5859 11.9287 27.2304 12.1027C25.8749 12.2767 24.895 13.5451 25.069 14.9006L25.7311 20.0583C16.9104 22.0307 13.2626 27.9097 13.6157 35.8964C13.6726 36.8637 14.5679 37.5553 15.4937 37.4365L71.4347 30.2557C72.3935 30.1326 73.0809 29.2042 72.8629 28.2912C71.1873 20.4743 66.1729 15.7072 57.1401 16.0266Z" fill="#29ACD6" fill-opacity="0.35"/>
<path d="M13.1161 35.9185L13.1161 35.9185L13.1165 35.9258C13.1913 37.1964 14.3585 38.0863 15.5573 37.9324L71.4984 30.7516C72.7229 30.5945 73.6395 29.407 73.3506 28.1811C72.4958 24.1973 70.7789 20.9399 68.0778 18.7214C65.4616 16.5727 61.9731 15.4405 57.5785 15.5149L56.9739 10.8052C56.7648 9.17578 55.2458 8.00243 53.6164 8.21159C51.9869 8.42075 50.8136 9.93969 51.0228 11.5691L51.5957 16.0325L31.0972 18.6638L30.5243 14.2004C30.3151 12.5709 28.7962 11.3976 27.1667 11.6068C25.5373 11.8159 24.364 13.3349 24.5731 14.9643L25.1777 19.674C20.9067 20.7119 17.8172 22.6885 15.8286 25.4283C13.7744 28.2583 12.9361 31.8457 13.1161 35.9185Z" stroke="url(#paint1_linear_57_213)" stroke-linecap="round"/>
</g>
<g filter="url(#filter2_b_57_213)">
<path d="M70.5504 35.4103L17.6511 42.2006C15.8327 42.434 14.5359 44.1128 14.7693 45.9312L17.3836 66.2974C18.6568 76.2161 24.4649 82.1919 36.0366 80.7065L62.4862 77.3113C74.058 75.8259 78.1685 68.5769 76.8953 58.6583L74.281 38.2921C74.0476 36.4737 72.3688 35.1768 70.5504 35.4103Z" fill="#29ACD6" fill-opacity="0.35"/>
<path d="M70.4868 34.9143L17.5875 41.7047C15.4951 41.9732 14.0048 43.9026 14.2734 45.9949L16.8877 66.3611C17.534 71.3964 19.3411 75.5067 22.528 78.1626C25.722 80.8243 30.2199 81.9572 36.1003 81.2024L62.5499 77.8073C68.4303 77.0524 72.4962 74.8202 74.9143 71.4381C77.3272 68.0634 78.0376 63.63 77.3912 58.5946L74.7769 38.2284C74.5084 36.1361 72.5791 34.6458 70.4868 34.9143Z" stroke="url(#paint2_linear_57_213)" stroke-linecap="round"/>
</g>
<g filter="url(#filter3_d_57_213)">
<path d="M37.9837 68.1228C38.1363 68.0024 38.2803 67.8159 38.4287 67.6624C38.9432 66.9578 39.1965 66.0515 39.0862 65.1919C38.9758 64.3323 38.5018 63.5194 37.826 62.9676L37.2792 62.6345C37.0638 62.5277 36.8527 62.454 36.6459 62.4133C36.4348 62.3396 36.2279 62.299 36.0253 62.2914C35.3471 62.244 34.6943 62.395 34.1331 62.7359C33.7246 62.9564 33.4237 63.2302 33.1312 63.5702C32.6167 64.2748 32.3634 65.1811 32.4737 66.0407C32.5841 66.9003 33.0581 67.7133 33.7339 68.265C34.1027 68.5202 34.463 68.7092 34.914 68.8193C35.332 68.9337 35.7745 68.9777 36.2043 68.9225C36.4358 68.8928 36.6299 68.8343 36.8571 68.7715C37.0512 68.713 37.2411 68.6214 37.4268 68.4968C37.6166 68.4052 37.8023 68.2805 37.9837 68.1228Z" fill="url(#paint3_linear_57_213)"/>
<path d="M34.719 57.3508C35.5786 57.2405 36.3915 56.7664 36.9433 56.0907C37.4578 55.3861 37.7111 54.4798 37.6008 53.6202C37.4904 52.7606 37.0164 51.9477 36.3407 51.3959C36.0049 51.1365 35.6115 50.9517 35.1605 50.8416C33.8693 50.4696 32.4527 50.9539 31.6458 51.9985C31.1314 52.7031 30.878 53.6094 30.9884 54.469C31.0987 55.3286 31.5727 56.1415 32.2485 56.6933C32.9531 57.2078 33.8593 57.4611 34.719 57.3508Z" fill="url(#paint4_linear_57_213)"/>
<path d="M47.7761 67.4371C48.6357 67.3268 49.4486 66.8528 50.0004 66.177C50.5149 65.4724 50.7682 64.5661 50.6579 63.7065C50.5475 62.8469 50.0735 62.034 49.3978 61.4822C48.0174 60.4159 45.7692 60.7045 44.7029 62.0848C44.1885 62.7894 43.9351 63.6957 44.0455 64.5553C44.1558 65.4149 44.6298 66.2279 45.3056 66.7797C46.0102 67.2941 46.9165 67.5475 47.7761 67.4371Z" fill="url(#paint5_linear_57_213)"/>
<path d="M48.07 55.0657L48.515 54.6053C49.0295 53.9007 49.2828 52.9944 49.1725 52.1348C49.0622 51.2752 48.5881 50.4623 47.9124 49.9105C46.8678 49.1036 45.3749 48.9927 44.2195 49.6788C43.8109 49.8992 43.4769 50.1774 43.2176 50.5131C42.7031 51.2177 42.4497 52.124 42.5601 52.9836C42.6704 53.8432 43.1445 54.6561 43.8202 55.2079C44.5248 55.7224 45.4311 55.9758 46.2907 55.8654C46.5221 55.8357 46.7162 55.7772 46.9434 55.7144C47.1376 55.6559 47.3275 55.5643 47.5131 55.4396C47.703 55.3481 47.8886 55.2234 48.07 55.0657Z" fill="url(#paint6_linear_57_213)"/>
<path d="M59.3478 65.9517C60.2074 65.8414 61.0203 65.3674 61.5721 64.6916C62.0866 63.9871 62.3399 63.0808 62.2296 62.2211C62.1193 61.3615 61.6452 60.5486 60.9695 59.9968C59.5892 58.9305 57.3409 59.2191 56.2747 60.5995C55.7602 61.304 55.5068 62.2103 55.6172 63.0699C55.7275 63.9296 56.2016 64.7425 56.8773 65.2943C57.5819 65.8087 58.4882 66.0621 59.3478 65.9517Z" fill="url(#paint7_linear_57_213)"/>
<path d="M59.6417 53.5803L60.0867 53.1199C60.6012 52.4153 60.8546 51.509 60.7442 50.6494C60.6339 49.7898 60.1598 48.9769 59.4841 48.4251L58.9372 48.092C58.7219 47.9852 58.5108 47.9115 58.3039 47.8708C58.0928 47.7971 57.886 47.7565 57.6833 47.7489C57.0051 47.7015 56.3524 47.8525 55.7912 48.1934C55.3826 48.4139 55.0817 48.6877 54.7893 49.0277C54.2748 49.7323 54.0215 50.6386 54.1318 51.4982C54.2421 52.3578 54.7162 53.1708 55.3919 53.7225C56.0965 54.237 57.0028 54.4904 57.8624 54.38C58.0608 54.3546 58.288 54.2918 58.5151 54.229L58.5152 54.229C58.7093 54.1705 58.8992 54.0789 59.0848 53.9543C59.2747 53.8627 59.4603 53.738 59.6417 53.5803Z" fill="url(#paint8_linear_57_213)"/>
</g>
</g>
<defs>
<filter id="filter0_d_57_213" x="8.59241" y="7.68738" width="79.524" height="82.2442" filterUnits="userSpaceOnUse" color-interpolation-filters="sRGB">
<feFlood flood-opacity="0" result="BackgroundImageFix"/>
<feColorMatrix in="SourceAlpha" type="matrix" values="0 0 0 0 0 0 0 0 0 0 0 0 0 0 0 0 0 0 127 0" result="hardAlpha"/>
<feOffset dy="4"/>
<feGaussianBlur stdDeviation="2"/>
<feComposite in2="hardAlpha" operator="out"/>
<feColorMatrix type="matrix" values="0 0 0 0 0 0 0 0 0 0 0 0 0 0 0 0 0 0 0.25 0"/>
<feBlend mode="normal" in2="BackgroundImageFix" result="effect1_dropShadow_57_213"/>
<feBlend mode="normal" in="SourceGraphic" in2="effect1_dropShadow_57_213" result="shape"/>
</filter>
<filter id="filter1_b_57_213" x="-11.4076" y="-16.3126" width="109.313" height="78.7623" filterUnits="userSpaceOnUse" color-interpolation-filters="sRGB">
<feFlood flood-opacity="0" result="BackgroundImageFix"/>
<feGaussianBlur in="BackgroundImageFix" stdDeviation="12"/>
<feComposite in2="SourceAlpha" operator="in" result="effect1_backgroundBlur_57_213"/>
<feBlend mode="normal" in="SourceGraphic" in2="effect1_backgroundBlur_57_213" result="shape"/>
</filter>
<filter id="filter2_b_57_213" x="-10.258" y="10.383" width="112.376" height="95.5486" filterUnits="userSpaceOnUse" color-interpolation-filters="sRGB">
<feFlood flood-opacity="0" result="BackgroundImageFix"/>
<feGaussianBlur in="BackgroundImageFix" stdDeviation="12"/>
<feComposite in2="SourceAlpha" operator="in" result="effect1_backgroundBlur_57_213"/>
<feBlend mode="normal" in="SourceGraphic" in2="effect1_backgroundBlur_57_213" result="shape"/>
</filter>
<filter id="filter3_d_57_213" x="27.9629" y="44.7404" width="47.2922" height="37.2058" filterUnits="userSpaceOnUse" color-interpolation-filters="sRGB">
<feFlood flood-opacity="0" result="BackgroundImageFix"/>
<feColorMatrix in="SourceAlpha" type="matrix" values="0 0 0 0 0 0 0 0 0 0 0 0 0 0 0 0 0 0 127 0" result="hardAlpha"/>
<feOffset dx="5" dy="5"/>
<feGaussianBlur stdDeviation="4"/>
<feColorMatrix type="matrix" values="0 0 0 0 0.176471 0 0 0 0 0.556863 0 0 0 0 0.678431 0 0 0 0.5 0"/>
<feBlend mode="normal" in2="BackgroundImageFix" result="effect1_dropShadow_57_213"/>
<feBlend mode="normal" in="SourceGraphic" in2="effect1_dropShadow_57_213" result="shape"/>
</filter>
<linearGradient id="paint0_linear_57_213" x1="39.1137" y1="62.4681" x2="85.0726" y2="18.4697" gradientUnits="userSpaceOnUse">
<stop stop-color="#207894"/>
<stop offset="1" stop-color="#2ECDFF"/>
</linearGradient>
<linearGradient id="paint1_linear_57_213" x1="10.8278" y1="14.2082" x2="32.0884" y2="52.6955" gradientUnits="userSpaceOnUse">
<stop stop-color="white" stop-opacity="0.25"/>
<stop offset="1" stop-color="white" stop-opacity="0"/>
</linearGradient>
<linearGradient id="paint2_linear_57_213" x1="14.3449" y1="42.625" x2="58.7617" y2="93.0363" gradientUnits="userSpaceOnUse">
<stop stop-color="white" stop-opacity="0.25"/>
<stop offset="1" stop-color="white" stop-opacity="0"/>
</linearGradient>
<linearGradient id="paint3_linear_57_213" x1="48.5239" y1="71.279" x2="66.4218" y2="32.233" gradientUnits="userSpaceOnUse">
<stop stop-color="white"/>
<stop offset="1" stop-color="white" stop-opacity="0.2"/>
</linearGradient>
<linearGradient id="paint4_linear_57_213" x1="48.5239" y1="71.279" x2="66.4218" y2="32.233" gradientUnits="userSpaceOnUse">
<stop stop-color="white"/>
<stop offset="1" stop-color="white" stop-opacity="0.2"/>
</linearGradient>
<linearGradient id="paint5_linear_57_213" x1="48.5239" y1="71.279" x2="66.4218" y2="32.233" gradientUnits="userSpaceOnUse">
<stop stop-color="white"/>
<stop offset="1" stop-color="white" stop-opacity="0.2"/>
</linearGradient>
<linearGradient id="paint6_linear_57_213" x1="48.5239" y1="71.279" x2="66.4218" y2="32.233" gradientUnits="userSpaceOnUse">
<stop stop-color="white"/>
<stop offset="1" stop-color="white" stop-opacity="0.2"/>
</linearGradient>
<linearGradient id="paint7_linear_57_213" x1="48.5239" y1="71.279" x2="66.4218" y2="32.233" gradientUnits="userSpaceOnUse">
<stop stop-color="white"/>
<stop offset="1" stop-color="white" stop-opacity="0.2"/>
</linearGradient>
<linearGradient id="paint8_linear_57_213" x1="48.5239" y1="71.279" x2="66.4218" y2="32.233" gradientUnits="userSpaceOnUse">
<stop stop-color="white"/>
<stop offset="1" stop-color="white" stop-opacity="0.2"/>
</linearGradient>
</defs>
</svg>
