<svg width="90" height="90" viewBox="0 0 90 90" fill="none" xmlns="http://www.w3.org/2000/svg">
<g filter="url(#filter0_b_54_187)">
<path d="M40.7891 12.1397C22.5515 14.3134 9.46131 30.9462 11.635 49.1838C13.8087 67.4214 30.4415 80.5115 48.6791 78.3378C66.9167 76.1641 80.0068 59.5313 77.8331 41.2938C75.6594 23.0562 59.0267 9.96601 40.7891 12.1397Z" fill="#29ACD6" fill-opacity="0.35"/>
<path d="M40.7299 11.6432C22.2181 13.8496 8.93214 30.7312 11.1385 49.243C13.3449 67.7547 30.2265 81.0407 48.7383 78.8343C67.2501 76.6279 80.536 59.7464 78.3296 41.2346C76.1232 22.7228 59.2417 9.43684 40.7299 11.6432Z" stroke="url(#paint0_linear_54_187)" stroke-linecap="round"/>
</g>
<g filter="url(#filter1_d_54_187)">
<path d="M58.5351 56.8202C59.3956 56.7176 60.1718 56.1887 60.5405 55.3391C61.1267 54.0608 60.548 52.5856 59.2736 52.0325L48.2831 47.1321C47.186 46.6586 45.984 45.0227 45.8419 43.8312L44.2245 30.2606C44.0627 28.9035 42.8032 27.9123 41.4462 28.074C40.0891 28.2357 39.0979 29.4952 39.2596 30.8523L40.8771 44.4229C41.2282 47.3687 43.5133 50.4869 46.2434 51.7057L57.2339 56.606C57.6627 56.8235 58.1048 56.8715 58.5351 56.8202Z" fill="url(#paint1_linear_54_187)"/>
</g>
<defs>
<filter id="filter0_b_54_187" x="-13.601" y="-13.0963" width="116.67" height="116.67" filterUnits="userSpaceOnUse" color-interpolation-filters="sRGB">
<feFlood flood-opacity="0" result="BackgroundImageFix"/>
<feGaussianBlur in="BackgroundImageFix" stdDeviation="12"/>
<feComposite in2="SourceAlpha" operator="in" result="effect1_backgroundBlur_54_187"/>
<feBlend mode="normal" in="SourceGraphic" in2="effect1_backgroundBlur_54_187" result="shape"/>
</filter>
<filter id="filter1_d_54_187" x="36.2423" y="25.0567" width="37.5275" height="44.7823" filterUnits="userSpaceOnUse" color-interpolation-filters="sRGB">
<feFlood flood-opacity="0" result="BackgroundImageFix"/>
<feColorMatrix in="SourceAlpha" type="matrix" values="0 0 0 0 0 0 0 0 0 0 0 0 0 0 0 0 0 0 127 0" result="hardAlpha"/>
<feOffset dx="5" dy="5"/>
<feGaussianBlur stdDeviation="4"/>
<feColorMatrix type="matrix" values="0 0 0 0 0.176471 0 0 0 0 0.556863 0 0 0 0 0.678431 0 0 0 0.5 0"/>
<feBlend mode="normal" in2="BackgroundImageFix" result="effect1_dropShadow_54_187"/>
<feBlend mode="normal" in="SourceGraphic" in2="effect1_dropShadow_54_187" result="shape"/>
</filter>
<linearGradient id="paint0_linear_54_187" x1="7.69" y1="16.0847" x2="81.8077" y2="74.3553" gradientUnits="userSpaceOnUse">
<stop stop-color="white" stop-opacity="0.25"/>
<stop offset="1" stop-color="white" stop-opacity="0"/>
</linearGradient>
<linearGradient id="paint1_linear_54_187" x1="52.7429" y1="64.0687" x2="86.9898" y2="37.6814" gradientUnits="userSpaceOnUse">
<stop stop-color="white"/>
<stop offset="1" stop-color="white" stop-opacity="0.2"/>
</linearGradient>
</defs>
</svg>
