<svg width="1440" height="536" viewBox="0 0 1440 536" fill="none" xmlns="http://www.w3.org/2000/svg">
<path d="M1448 536C1285.85 530.594 -8.99991 534.513 -8.99991 534.513L-9 73.5303C190.982 28.8988 449.366 2 731.5 2C1002.48 2 1251.54 26.8131 1448 68.3185V536Z" fill="white"/>
<path d="M1447.97 536.999L1449 537.034V536V68.3185V67.5077L1448.21 67.3401C1251.67 25.8177 1002.53 1 731.5 1C449.309 1 190.85 27.9036 -9.21782 72.5543L-10 72.7289L-10 73.5303L-9.99991 534.513L-9.99991 535.516L-8.99688 535.513L-8.99991 534.513C-8.99688 535.513 -8.99194 535.513 -8.98209 535.512L-8.93776 535.512L-8.76096 535.512L-8.0578 535.51L-5.27753 535.501C-2.82264 535.494 0.82268 535.484 5.58433 535.47C15.1076 535.442 29.0963 535.403 46.9576 535.355C82.6802 535.258 133.894 535.126 195.856 534.985C319.782 534.702 486.705 534.381 658.695 534.229C1002.69 533.925 1366.91 534.297 1447.97 536.999Z" stroke="url(#paint0_radial_103_602)" stroke-opacity="0.5" stroke-width="2"/>
<defs>
<radialGradient id="paint0_radial_103_602" cx="0" cy="0" r="1" gradientUnits="userSpaceOnUse" gradientTransform="translate(720 2.00007) rotate(90.0949) scale(604.001 836.997)">
<stop stop-color="#4AA8FF"/>
<stop offset="1" stop-color="#70BAFF" stop-opacity="0"/>
</radialGradient>
</defs>
</svg>
