<svg width="18" height="16" viewBox="0 0 18 16" fill="none" xmlns="http://www.w3.org/2000/svg">
<path fill-rule="evenodd" clip-rule="evenodd" d="M2.28307 0.0881602C2.12428 0.140615 1.91486 0.232628 1.81775 0.292678C1.55008 0.458097 1.22755 0.833948 1.07615 1.15688C0.959107 1.40667 0.940552 1.5125 0.940552 1.93153C0.940552 2.37584 0.954519 2.44527 1.10577 2.7525C1.30478 3.1567 1.66936 3.51471 2.07641 3.70546C2.33455 3.82643 2.42911 3.84208 2.90314 3.84208C3.39175 3.84208 3.46496 3.82908 3.74313 3.69267C4.51849 3.31258 4.989 2.43288 4.84239 1.63734C4.72311 0.990191 4.31203 0.455447 3.72121 0.179C3.29464 -0.020624 2.72218 -0.0567663 2.28307 0.0881602ZM12.6651 5.03799C11.8182 5.13556 11.0051 5.54995 10.3368 6.22452L9.9409 6.62423L9.92663 5.94685L9.9124 5.26942L8.26841 5.25597L6.62442 5.24251V10.6213V16H8.33213H10.0398V13.0725C10.0398 11.2607 10.0607 9.9947 10.0947 9.75057C10.2085 8.93255 10.5113 8.44053 11.0794 8.15078C11.4023 7.98607 11.4598 7.97363 11.8931 7.97511C12.2631 7.97643 12.4113 8.00014 12.6114 8.09021C13.1367 8.32664 13.4113 8.64754 13.6217 9.27109C13.7314 9.59596 13.7339 9.66493 13.7498 12.8012L13.7661 16H15.4713H17.1765L17.1762 12.4444C17.1759 8.54406 17.1598 8.27531 16.8769 7.45443C16.6722 6.86071 16.4499 6.50566 15.9997 6.05339C15.5561 5.60791 15.0205 5.3102 14.3656 5.14514C13.9005 5.028 13.158 4.9812 12.6651 5.03799ZM1.20395 5.27794C1.18524 5.29659 1.16995 7.71671 1.16995 10.656V16H2.87766H4.58537V10.622V5.24394H2.91166C1.99107 5.24394 1.2226 5.25923 1.20395 5.27794Z" fill="#CBCBCB"/>
</svg>
