<svg width="25" height="24" viewBox="0 0 25 24" fill="none" xmlns="http://www.w3.org/2000/svg">
<path fill-rule="evenodd" clip-rule="evenodd" d="M5.72249 0.0717944C2.779 0.478949 0.46898 2.80668 0.0727916 5.76483C-0.0242639 6.48958 -0.0242639 17.5059 0.0727916 18.2307C0.268965 19.6952 0.915267 21.0046 1.95537 22.0446C2.99261 23.0819 4.30883 23.7316 5.76935 23.9272C6.49411 24.0243 17.5104 24.0243 18.2352 23.9272C21.2146 23.5282 23.5327 21.21 23.9318 18.2307C24.0288 17.5059 24.0288 6.48958 23.9318 5.76483C23.5327 2.78545 21.2146 0.467327 18.2352 0.0682796C17.5395 -0.024886 6.39883 -0.0217461 5.72249 0.0717944ZM17.7285 2.15701C18.8745 2.26569 19.8143 2.70766 20.5835 3.49966C21.3346 4.27296 21.7376 5.16005 21.843 6.27153C21.9068 6.94384 21.9068 17.0516 21.843 17.724C21.7376 18.8354 21.3346 19.7225 20.5835 20.4958C19.8143 21.2878 18.8745 21.7298 17.7285 21.8385C17.0562 21.9022 6.94836 21.9022 6.27605 21.8385C5.13003 21.7298 4.19022 21.2878 3.42104 20.4958C2.67 19.7225 2.26692 18.8354 2.16152 17.724C2.09779 17.0516 2.09779 6.94384 2.16152 6.27153C2.2702 5.12551 2.71218 4.1857 3.50418 3.41652C4.25021 2.69201 5.17643 2.25912 6.19113 2.16071C6.7841 2.10326 17.1263 2.09993 17.7285 2.15701ZM17.8744 4.12942C17.5239 4.26415 17.2 4.57439 17.0379 4.93065C16.5851 5.92544 17.2751 7.05481 18.3727 7.11531C18.9009 7.14446 19.4406 6.87387 19.7321 6.43386C19.9211 6.14846 19.9878 5.90632 19.9843 5.51823C19.9749 4.47382 18.8701 3.74659 17.8744 4.12942ZM11.1587 5.88349C9.80144 6.07301 8.61649 6.66439 7.6427 7.63817C6.59468 8.68615 6.01389 9.92453 5.85638 11.4471C5.7051 12.909 6.16835 14.5341 7.0755 15.7234C7.35031 16.0837 7.91629 16.6497 8.27658 16.9245C9.46594 17.8317 11.091 18.2949 12.5529 18.1436C14.0755 17.9861 15.3139 17.4053 16.3619 16.3573C17.4099 15.3093 17.9907 14.071 18.1482 12.5484C18.2724 11.3483 17.9799 10.0062 17.3593 8.92815C16.1025 6.74476 13.6423 5.53675 11.1587 5.88349ZM12.9396 8.06309C14.3967 8.41068 15.5893 9.60332 15.9369 11.0605C16.0666 11.604 16.0666 12.3915 15.9369 12.935C15.6601 14.0956 14.8472 15.1052 13.7676 15.6289C13.1793 15.9144 12.6784 16.0274 12.0023 16.0274C11.3261 16.0274 10.8253 15.9144 10.2369 15.6289C9.15739 15.1052 8.34444 14.0956 8.06761 12.935C7.93799 12.3915 7.93799 11.604 8.06761 11.0605C8.41244 9.61471 9.60035 8.41865 11.0416 8.06595C11.5687 7.93698 12.4054 7.93571 12.9396 8.06309Z" fill="#CBCBCB"/>
</svg>
