<svg width="24" height="24" viewBox="0 0 24 24" fill="none" xmlns="http://www.w3.org/2000/svg">
<path d="M12.32 15.37C12.51 15.37 12.7 15.3 12.85 15.15C13.14 14.86 13.14 14.38 12.85 14.09L10.82 12.06L12.85 10.03C13.14 9.74 13.14 9.26 12.85 8.97C12.56 8.68 12.08 8.68 11.79 8.97L9.23 11.53C8.94 11.82 8.94 12.3 9.23 12.59L11.79 15.15C11.93 15.3 12.13 15.37 12.32 15.37Z" fill="#24253C"/>
<path d="M9.83 12.81H20C20.41 12.81 20.75 12.47 20.75 12.06C20.75 11.65 20.41 11.31 20 11.31H9.83C9.42 11.31 9.08 11.65 9.08 12.06C9.08 12.47 9.42 12.81 9.83 12.81Z" fill="#24253C"/>
<path d="M12 20.75C12.41 20.75 12.75 20.41 12.75 20C12.75 19.59 12.41 19.25 12 19.25C7.73 19.25 4.75 16.27 4.75 12C4.75 7.73 7.73 4.75 12 4.75C12.41 4.75 12.75 4.41 12.75 4C12.75 3.59 12.41 3.25 12 3.25C6.85 3.25 3.25 6.85 3.25 12C3.25 17.15 6.85 20.75 12 20.75Z" fill="#24253C"/>
</svg>
