<svg width="168" height="52" viewBox="0 0 168 52" fill="none" xmlns="http://www.w3.org/2000/svg">
<path d="M60.736 19.6086H60.816V16.6862C60.7372 16.6955 60.6573 16.7001 60.5761 16.7001V19.6062C60.6291 19.6078 60.6825 19.6086 60.736 19.6086Z" fill="url(#paint0_linear_9_201)"/>
<path d="M50.2115 16.7001V19.6386H53.7997V16.7101C53.8434 16.7101 53.8867 16.7089 53.9296 16.7063V16.7001H50.2115Z" fill="url(#paint1_linear_9_201)"/>
<path d="M50.2115 19.6386V16.7001H50.1016V19.6386H50.2115Z" fill="url(#paint2_linear_9_201)"/>
<path d="M46.4935 16.7001V19.6386H50.1016V16.7001H46.4935Z" fill="url(#paint3_linear_9_201)"/>
<path d="M53.9296 19.6386V16.7063C53.8867 16.7089 53.8434 16.7101 53.7997 16.7101V19.6386H53.9296Z" fill="url(#paint4_linear_9_201)"/>
<path d="M42.6655 16.7001V19.6386H42.7954V16.7001H42.6655Z" fill="url(#paint5_linear_9_201)"/>
<path fill-rule="evenodd" clip-rule="evenodd" d="M65.5035 14.7412V13.7717H62.5551V14.7412C62.5551 15.0144 62.5017 15.2709 62.3951 15.5108C62.2885 15.744 62.1453 15.9505 61.9654 16.1304C61.7855 16.3037 61.5756 16.4436 61.3357 16.5502C61.1689 16.6197 60.9957 16.6651 60.816 16.6862V16.6602H60.736C60.4628 16.6602 60.2063 16.6102 59.9664 16.5102C59.7265 16.4036 59.5167 16.2637 59.3367 16.0905C59.1568 15.9106 59.0136 15.7007 58.907 15.4608C58.807 15.2209 58.7571 14.9644 58.7571 14.6912V13.6018H55.7686V14.7312C55.7686 15.0044 55.7153 15.2609 55.6087 15.5008C55.5088 15.7406 55.3688 15.9505 55.1889 16.1304C55.0157 16.3103 54.8091 16.4536 54.5693 16.5602C54.3678 16.6442 54.1546 16.6929 53.9296 16.7063V19.6386H53.7997V19.6486C54.486 19.6486 55.1256 19.5187 55.7186 19.2588C56.3183 18.9989 56.8414 18.6425 57.2878 18.1894C57.7343 18.6291 58.2507 18.9756 58.837 19.2288C59.3828 19.4619 59.9625 19.5877 60.5761 19.6062V19.6386C61.2491 19.6386 61.8854 19.512 62.4851 19.2588C63.0848 18.9989 63.6078 18.6491 64.0543 18.2094C64.5007 17.7629 64.8538 17.2432 65.1137 16.6502C65.3736 16.0505 65.5035 15.4142 65.5035 14.7412ZM60.5761 19.6062V16.7001C60.6573 16.7001 60.7372 16.6955 60.816 16.6862V19.6086H60.736C60.6825 19.6086 60.6291 19.6078 60.5761 19.6062ZM62.5451 7.62491C62.3385 7.53163 62.1153 7.48499 61.8754 7.48499C61.6355 7.48499 61.409 7.53163 61.1958 7.62491C60.9892 7.7182 60.806 7.8448 60.6461 8.00471C60.4928 8.15797 60.3729 8.3412 60.2862 8.55442C60.193 8.76764 60.1463 8.99419 60.1463 9.23407C60.1463 9.47394 60.193 9.70049 60.2862 9.91371C60.3729 10.1203 60.4928 10.3035 60.6461 10.4634C60.806 10.6167 60.9892 10.7399 61.1958 10.8332C61.409 10.9198 61.6355 10.9632 61.8754 10.9632C62.1153 10.9632 62.3385 10.9198 62.5451 10.8332C62.7516 10.7399 62.9315 10.6167 63.0848 10.4634C63.2447 10.3035 63.368 10.1203 63.4546 9.91371C63.5479 9.70049 63.5945 9.47394 63.5945 9.23407C63.5945 8.99419 63.5479 8.76764 63.4546 8.55442C63.368 8.3412 63.2447 8.15797 63.0848 8.00471C62.9315 7.8448 62.7516 7.7182 62.5451 7.62491ZM66.6029 7.62491C66.3964 7.53163 66.1732 7.48499 65.9333 7.48499C65.6934 7.48499 65.4669 7.53163 65.2536 7.62491C65.0471 7.7182 64.8638 7.8448 64.7039 8.00471C64.5507 8.15797 64.4274 8.3412 64.3341 8.55442C64.2475 8.76764 64.2042 8.99419 64.2042 9.23407C64.2042 9.47394 64.2475 9.70049 64.3341 9.91371C64.4274 10.1203 64.5507 10.3035 64.7039 10.4634C64.8638 10.6167 65.0471 10.7399 65.2536 10.8332C65.4669 10.9198 65.6934 10.9632 65.9333 10.9632C66.1732 10.9632 66.3964 10.9198 66.6029 10.8332C66.8095 10.7399 66.9894 10.6167 67.1426 10.4634C67.3026 10.3035 67.4258 10.1203 67.5125 9.91371C67.6057 9.70049 67.6524 9.47394 67.6524 9.23407C67.6524 8.99419 67.6057 8.76764 67.5125 8.55442C67.4258 8.3412 67.3026 8.15797 67.1426 8.00471C66.9894 7.8448 66.8095 7.7182 66.6029 7.62491ZM55.8086 20.6281C55.602 20.5348 55.3788 20.4882 55.139 20.4882C54.8991 20.4882 54.6725 20.5348 54.4593 20.6281C54.2528 20.7214 54.0695 20.8446 53.9096 20.9979C53.7563 21.1578 53.6364 21.3444 53.5498 21.5576C53.4565 21.7708 53.4099 21.9974 53.4099 22.2372C53.4099 22.4771 53.4565 22.7003 53.5498 22.9069C53.6364 23.1201 53.7563 23.3033 53.9096 23.4566C54.0695 23.6165 54.2528 23.7398 54.4593 23.8264C54.6725 23.9197 54.8991 23.9663 55.139 23.9663C55.3788 23.9663 55.602 23.9197 55.8086 23.8264C56.0152 23.7398 56.1951 23.6165 56.3483 23.4566C56.5082 23.3033 56.6315 23.1201 56.7181 22.9069C56.8114 22.7003 56.858 22.4771 56.858 22.2372C56.858 21.9974 56.8114 21.7708 56.7181 21.5576C56.6315 21.3444 56.5082 21.1578 56.3483 20.9979C56.1951 20.8446 56.0152 20.7214 55.8086 20.6281ZM59.8665 20.6281C59.6599 20.5348 59.4367 20.4882 59.1968 20.4882C58.9569 20.4882 58.7304 20.5348 58.5172 20.6281C58.3106 20.7214 58.1274 20.8446 57.9675 20.9979C57.8142 21.1578 57.6909 21.3444 57.5977 21.5576C57.511 21.7708 57.4677 21.9974 57.4677 22.2372C57.4677 22.4771 57.511 22.7003 57.5977 22.9069C57.6909 23.1201 57.8142 23.3033 57.9675 23.4566C58.1274 23.6165 58.3106 23.7398 58.5172 23.8264C58.7304 23.9197 58.9569 23.9663 59.1968 23.9663C59.4367 23.9663 59.6599 23.9197 59.8665 23.8264C60.073 23.7398 60.2529 23.6165 60.4062 23.4566C60.5661 23.3033 60.6894 23.1201 60.776 22.9069C60.8693 22.7003 60.9159 22.4771 60.9159 22.2372C60.9159 21.9974 60.8693 21.7708 60.776 21.5576C60.6894 21.3444 60.5661 21.1578 60.4062 20.9979C60.2529 20.8446 60.073 20.7214 59.8665 20.6281ZM42.7954 16.7001H46.3836V19.6386H42.7954V16.7001ZM42.7954 16.7001H42.6655V19.6386H42.7954V19.6486H36.8186C36.5587 19.6553 36.3122 19.7086 36.079 19.8085C35.8524 19.9151 35.6525 20.0584 35.4793 20.2383C35.3127 20.4182 35.1794 20.6247 35.0795 20.858C34.9862 21.0912 34.9396 21.341 34.9396 21.6076C34.9396 21.8808 34.9895 22.1373 35.0895 22.3772C35.1961 22.617 35.336 22.8236 35.5093 22.9968C35.6892 23.1767 35.8957 23.3167 36.1289 23.4166C36.3688 23.5232 36.6253 23.5765 36.8985 23.5765H41.1063V26.515H36.8985C36.2256 26.515 35.5926 26.3851 34.9995 26.1252C34.4065 25.872 33.8868 25.5222 33.4404 25.0757C33.0006 24.6293 32.6508 24.1096 32.3909 23.5166C32.1377 22.9235 32.0111 22.2872 32.0111 21.6076C32.0111 20.9479 32.131 20.3249 32.3709 19.7385C32.6175 19.1522 32.9506 18.6391 33.3704 18.1994C33.7968 17.7529 34.2966 17.3964 34.8696 17.1299C35.4426 16.8634 36.059 16.7168 36.7186 16.6901H37.0884C37.355 16.6901 37.6082 16.6402 37.848 16.5402C38.0879 16.4336 38.2978 16.2937 38.4777 16.1204C38.6576 15.9405 38.7975 15.734 38.8975 15.5008C39.0041 15.2609 39.0574 15.0077 39.0574 14.7412C39.0574 14.4613 39.0041 14.2015 38.8975 13.9616C38.7909 13.7217 38.6476 13.5118 38.4677 13.3319C38.2878 13.152 38.0779 13.0121 37.838 12.9121C37.5982 12.8055 37.3416 12.7522 37.0685 12.7522H36.8985C36.6253 12.7522 36.3688 12.8055 36.1289 12.9121C35.8957 13.0121 35.6892 13.152 35.5093 13.3319C35.336 13.5118 35.1961 13.7217 35.0895 13.9616C34.9895 14.2015 34.9396 14.4613 34.9396 14.7412H32.0111C32.0111 14.0615 32.1377 13.4219 32.3909 12.8222C32.6508 12.2225 33.0006 11.7028 33.4404 11.263C33.8868 10.8166 34.4065 10.4634 34.9995 10.2036C35.5926 9.94369 36.2256 9.81376 36.8985 9.81376H37.0685C37.7481 9.81376 38.3844 9.94369 38.9774 10.2036C39.5771 10.4634 40.1002 10.8166 40.5466 11.263C40.9931 11.7028 41.3462 12.2225 41.6061 12.8222C41.8659 13.4219 41.9959 14.0615 41.9959 14.7412C41.9959 15.0877 41.9592 15.4241 41.8859 15.7506C41.8126 16.0705 41.7093 16.3836 41.5761 16.6901H42.7954V16.7001ZM37.3883 20.3482C37.5682 20.3482 37.7348 20.3815 37.888 20.4482C38.0413 20.5215 38.1779 20.6148 38.2978 20.728C38.4177 20.848 38.511 20.9879 38.5777 21.1478C38.6443 21.3077 38.6776 21.4776 38.6776 21.6575C38.6776 21.8374 38.6443 22.0074 38.5777 22.1673C38.511 22.3272 38.4177 22.4638 38.2978 22.5771C38.1779 22.697 38.0413 22.7903 37.888 22.8569C37.7348 22.9235 37.5682 22.9569 37.3883 22.9569C37.2084 22.9569 37.0385 22.9235 36.8786 22.8569C36.7253 22.7903 36.5887 22.697 36.4688 22.5771C36.3555 22.4638 36.2622 22.3272 36.1889 22.1673C36.1223 22.0074 36.089 21.8374 36.089 21.6575C36.089 21.4776 36.1223 21.3077 36.1889 21.1478C36.2622 20.9879 36.3555 20.848 36.4688 20.728C36.5887 20.6148 36.7253 20.5215 36.8786 20.4482C37.0385 20.3815 37.2084 20.3482 37.3883 20.3482ZM40.1768 20.3482C40.3567 20.3482 40.5233 20.3815 40.6766 20.4482C40.8298 20.5215 40.9631 20.6148 41.0763 20.728C41.1963 20.848 41.2896 20.9879 41.3562 21.1478C41.4295 21.3077 41.4661 21.4776 41.4661 21.6575C41.4661 21.8374 41.4295 22.0074 41.3562 22.1673C41.2896 22.3272 41.1963 22.4638 41.0763 22.5771C40.9631 22.697 40.8298 22.7903 40.6766 22.8569C40.5233 22.9235 40.3567 22.9569 40.1768 22.9569C39.9969 22.9569 39.827 22.9235 39.6671 22.8569C39.5138 22.7903 39.3772 22.697 39.2573 22.5771C39.1374 22.4638 39.0441 22.3272 38.9774 22.1673C38.9108 22.0074 38.8775 21.8374 38.8775 21.6575C38.8775 21.4776 38.9108 21.3077 38.9774 21.1478C39.0441 20.9879 39.1374 20.848 39.2573 20.728C39.3772 20.6148 39.5138 20.5215 39.6671 20.4482C39.827 20.3815 39.9969 20.3482 40.1768 20.3482ZM43.0453 20.3482C43.2252 20.3482 43.3918 20.3815 43.545 20.4482C43.6983 20.5215 43.8316 20.6148 43.9448 20.728C44.0648 20.848 44.1581 20.9879 44.2247 21.1478C44.298 21.3077 44.3346 21.4776 44.3346 21.6575C44.3346 21.8374 44.298 22.0074 44.2247 22.1673C44.1581 22.3272 44.0648 22.4638 43.9448 22.5771C43.8316 22.697 43.6983 22.7903 43.545 22.8569C43.3918 22.9235 43.2252 22.9569 43.0453 22.9569C42.8654 22.9569 42.6955 22.9235 42.5356 22.8569C42.3823 22.7903 42.2457 22.697 42.1258 22.5771C42.0059 22.4638 41.9126 22.3272 41.8459 22.1673C41.7793 22.0074 41.746 21.8374 41.746 21.6575C41.746 21.4776 41.7793 21.3077 41.8459 21.1478C41.9126 20.9879 42.0059 20.848 42.1258 20.728C42.2457 20.6148 42.3823 20.5215 42.5356 20.4482C42.6955 20.3815 42.8654 20.3482 43.0453 20.3482Z" fill="url(#paint6_linear_9_201)"/>
<path d="M46.4935 19.6386V16.7001H46.3836V19.6386H46.4935Z" fill="url(#paint7_linear_9_201)"/>
<path fill-rule="evenodd" clip-rule="evenodd" d="M84.3436 15.151C84.317 15.2776 84.277 15.4042 84.2237 15.5308L83.9738 15.9206C83.8006 16.1604 83.5773 16.357 83.3041 16.5102C83.031 16.6568 82.7345 16.7301 82.4146 16.7301C82.1414 16.7301 81.8849 16.6802 81.645 16.5802C81.4051 16.4736 81.1953 16.3303 81.0154 16.1504C80.8354 15.9705 80.6922 15.7606 80.5856 15.5208C80.4856 15.2809 80.4357 15.0244 80.4357 14.7512C80.4357 14.4713 80.4856 14.2115 80.5856 13.9716C80.6922 13.7317 80.8354 13.5251 81.0154 13.3519C81.1953 13.172 81.4051 13.0321 81.645 12.9321C81.8849 12.8255 82.1414 12.7722 82.4146 12.7722C82.6811 12.7722 82.9343 12.8255 83.1742 12.9321C83.4141 13.0321 83.624 13.172 83.8039 13.3519C83.9838 13.5251 84.1237 13.7317 84.2237 13.9716C84.3303 14.2115 84.3836 14.4713 84.3836 14.7512C84.3836 14.8844 84.3703 15.0177 84.3436 15.151ZM88.0664 19.6286H88.0816V19.6276C88.63 19.5919 89.153 19.469 89.6508 19.2588C90.2505 18.9989 90.7736 18.6491 91.22 18.2094C91.6664 17.7629 92.0196 17.2432 92.2794 16.6502C92.5393 16.0505 92.6692 15.4142 92.6692 14.7412V13.7717H89.7208V14.7412C89.7208 15.0144 89.6675 15.2709 89.5609 15.5108C89.4543 15.744 89.311 15.9505 89.1311 16.1304C88.9512 16.3037 88.7413 16.4436 88.5014 16.5502C88.3491 16.6137 88.1915 16.657 88.0285 16.6802H86.9422C87.2088 16.0738 87.342 15.4308 87.342 14.7512C87.342 14.0715 87.2121 13.4319 86.9522 12.8322C86.6924 12.2325 86.3392 11.7128 85.8928 11.273C85.4464 10.8266 84.9233 10.4734 84.3236 10.2136C83.7239 9.95369 83.0876 9.82376 82.4146 9.82376C81.7416 9.82376 81.1053 9.95369 80.5056 10.2136C79.9059 10.4734 79.3829 10.8266 78.9364 11.273C78.49 11.7128 78.1369 12.2325 77.877 12.8322C77.6171 13.4319 77.4872 14.0715 77.4872 14.7512C77.4872 15.3775 77.5971 15.9705 77.817 16.5302C78.0436 17.0899 78.3534 17.5897 78.7465 18.0294C79.1397 18.4626 79.6028 18.8224 80.1358 19.1089C80.6689 19.3887 81.2452 19.562 81.8649 19.6286L80.3957 22.1773L82.9443 23.6465L85.2431 19.6286H87.7418V19.6386C87.851 19.6386 87.9592 19.6353 88.0664 19.6286ZM88.0664 19.6286L88.0816 19.6276V16.6802H88.0285C87.9347 16.6935 87.8391 16.7001 87.7418 16.7001V19.6286H88.0664ZM89.6908 20.6281C89.4842 20.5348 89.261 20.4882 89.0211 20.4882C88.7813 20.4882 88.5547 20.5348 88.3415 20.6281C88.1349 20.7214 87.9517 20.8446 87.7918 20.9979C87.6385 21.1578 87.5186 21.3444 87.432 21.5576C87.3387 21.7708 87.2921 21.9974 87.2921 22.2372C87.2921 22.4771 87.3387 22.7003 87.432 22.9069C87.5186 23.1201 87.6385 23.3033 87.7918 23.4566C87.9517 23.6165 88.1349 23.7398 88.3415 23.8264C88.5547 23.9197 88.7813 23.9663 89.0211 23.9663C89.261 23.9663 89.4842 23.9197 89.6908 23.8264C89.8974 23.7398 90.0773 23.6165 90.2305 23.4566C90.3904 23.3033 90.5137 23.1201 90.6003 22.9069C90.6936 22.7003 90.7402 22.4771 90.7402 22.2372C90.7402 21.9974 90.6936 21.7708 90.6003 21.5576C90.5137 21.3444 90.3904 21.1578 90.2305 20.9979C90.0773 20.8446 89.8974 20.7214 89.6908 20.6281ZM93.7487 20.6281C93.5421 20.5348 93.3189 20.4882 93.079 20.4882C92.8391 20.4882 92.6126 20.5348 92.3994 20.6281C92.1928 20.7214 92.0096 20.8446 91.8497 20.9979C91.6964 21.1578 91.5731 21.3444 91.4799 21.5576C91.3932 21.7708 91.3499 21.9974 91.3499 22.2372C91.3499 22.4771 91.3932 22.7003 91.4799 22.9069C91.5731 23.1201 91.6964 23.3033 91.8497 23.4566C92.0096 23.6165 92.1928 23.7398 92.3994 23.8264C92.6126 23.9197 92.8391 23.9663 93.079 23.9663C93.3189 23.9663 93.5421 23.9197 93.7487 23.8264C93.9552 23.7398 94.1351 23.6165 94.2884 23.4566C94.4483 23.3033 94.5716 23.1201 94.6582 22.9069C94.7515 22.7003 94.7981 22.4771 94.7981 22.2372C94.7981 21.9974 94.7515 21.7708 94.6582 21.5576C94.5716 21.3444 94.4483 21.1578 94.2884 20.9979C94.1351 20.8446 93.9552 20.7214 93.7487 20.6281Z" fill="url(#paint8_linear_9_201)"/>
<path d="M88.0664 19.6286L88.0816 19.6276V16.6802H88.0285C87.9347 16.6935 87.8391 16.7001 87.7418 16.7001V19.6286H88.0664Z" fill="url(#paint9_linear_9_201)"/>
<path d="M69.2734 22.1697L71.8466 23.6554C73.2406 21.1183 76.1279 16.6925 76.1279 13.6989H73.0716C73.0716 16.0357 70.4418 20.0949 69.2734 22.1697Z" fill="url(#paint10_linear_9_201)"/>
<path d="M5.84677 42.875C5.5201 42.9483 5.22343 42.985 4.95677 42.985C4.43677 42.985 3.98677 42.8683 3.60677 42.635C3.22677 42.4017 2.93677 42.0717 2.73677 41.645C2.53677 41.2183 2.43677 40.7217 2.43677 40.155C2.43677 39.515 2.56343 38.835 2.81677 38.115L3.69677 38.465C3.4701 39.105 3.35677 39.6783 3.35677 40.185C3.35677 40.745 3.49343 41.1783 3.76677 41.485C4.04677 41.7917 4.44343 41.945 4.95677 41.945C5.1901 41.945 5.41677 41.9183 5.63677 41.865C6.10343 41.7583 6.44677 41.665 6.66677 41.585C6.89343 41.505 7.0701 41.3917 7.19677 41.245C7.3301 41.0983 7.39677 40.8883 7.39677 40.615C7.39677 40.5617 7.3901 40.4683 7.37677 40.335L6.97677 37.595L7.88677 37.445L8.29677 40.185C8.32343 40.4117 8.33677 40.5717 8.33677 40.665C8.33677 41.1117 8.23343 41.4783 8.02677 41.765C7.82677 42.0517 7.54677 42.2783 7.18677 42.445C6.83343 42.6117 6.38677 42.755 5.84677 42.875ZM4.71677 36.945H5.82677V38.055H4.71677V36.945ZM9.6213 33.835L10.5513 33.785L10.8013 40.505L9.8813 40.545L9.6213 33.835ZM14.3393 40.515C14.1726 40.515 14.0359 40.5017 13.9293 40.475C13.9426 40.6217 13.9493 40.725 13.9493 40.785C13.9493 41.385 13.7626 41.845 13.3893 42.165C13.0159 42.485 12.4626 42.745 11.7293 42.945L11.2393 43.075L10.9993 42.075L11.4893 41.945C11.8559 41.845 12.1393 41.7517 12.3393 41.665C12.5459 41.5783 12.7093 41.4583 12.8293 41.305C12.9559 41.1583 13.0193 40.9617 13.0193 40.715C13.0193 40.6683 13.0126 40.585 12.9993 40.465L12.5993 37.585L13.5193 37.445L13.5993 38.055C13.6659 38.415 13.7026 38.6317 13.7093 38.705C13.7626 39.0183 13.8293 39.225 13.9093 39.325C13.9959 39.425 14.1393 39.475 14.3393 39.475H14.4093L14.4693 39.995L14.4093 40.515H14.3393ZM14.3379 39.475H16.0979C16.4113 39.475 16.6546 39.4217 16.8279 39.315C17.0079 39.2017 17.0979 39.015 17.0979 38.755C17.0979 38.615 17.0746 38.4717 17.0279 38.325L16.6379 36.835L17.5279 36.575L17.9379 38.115C17.9979 38.355 18.0279 38.5783 18.0279 38.785C18.0279 39.325 17.8446 39.7483 17.4779 40.055C17.1113 40.3617 16.6513 40.515 16.0979 40.515H14.3379V39.475ZM14.5679 41.475H15.5479V42.465H14.5679V41.475ZM16.4279 41.475H17.4079V42.465H16.4279V41.475ZM19.3186 33.835L20.2486 33.785L20.4986 40.505L19.5786 40.545L19.3186 33.835ZM30.5458 40.515C30.3458 40.515 30.1758 40.4817 30.0358 40.415C30.0424 40.4683 30.0458 40.5483 30.0458 40.655C30.0458 41.1017 29.9424 41.4683 29.7358 41.755C29.5358 42.0483 29.2558 42.2783 28.8958 42.445C28.5424 42.6117 28.0958 42.755 27.5558 42.875C27.2291 42.9483 26.9324 42.985 26.6658 42.985C26.1458 42.985 25.6958 42.8683 25.3158 42.635C24.9358 42.4017 24.6458 42.0717 24.4458 41.645C24.2458 41.2183 24.1458 40.7217 24.1458 40.155C24.1458 39.515 24.2724 38.835 24.5258 38.115L25.4058 38.465C25.1791 39.105 25.0658 39.6783 25.0658 40.185C25.0658 40.745 25.2024 41.1783 25.4758 41.485C25.7558 41.7917 26.1524 41.945 26.6658 41.945C26.8991 41.945 27.1258 41.9183 27.3458 41.865C27.8124 41.7583 28.1558 41.665 28.3758 41.585C28.6024 41.505 28.7791 41.3917 28.9058 41.245C29.0391 41.0983 29.1058 40.8883 29.1058 40.615C29.1058 40.5617 29.0991 40.4683 29.0858 40.335L28.6858 37.595L29.5958 37.445C29.6958 38.0783 29.7624 38.485 29.7958 38.665C29.8491 38.9583 29.9291 39.1683 30.0358 39.295C30.1491 39.415 30.3124 39.475 30.5258 39.475H30.8058L30.8658 39.995L30.8058 40.515H30.5458ZM26.4358 36.975H27.5458V38.075H26.4358V36.975ZM30.7051 39.475H32.4651C32.7785 39.475 33.0218 39.4217 33.1951 39.315C33.3751 39.2017 33.4651 39.015 33.4651 38.755C33.4651 38.615 33.4418 38.4717 33.3951 38.325L33.0051 36.835L33.8951 36.575L34.3051 38.115C34.3651 38.355 34.3951 38.5783 34.3951 38.785C34.3951 39.325 34.2118 39.7483 33.8451 40.055C33.4785 40.3617 33.0185 40.515 32.4651 40.515H30.7051V39.475ZM30.9351 41.475H31.9151V42.465H30.9351V41.475ZM32.7951 41.475H33.7751V42.465H32.7951V41.475ZM40.8558 40.515C40.2891 40.515 39.8758 40.345 39.6158 40.005C39.2958 40.345 38.8591 40.515 38.3058 40.515H35.8658V39.475H38.3058C38.6324 39.475 38.8524 39.4083 38.9658 39.275C39.0791 39.135 39.1291 38.9683 39.1158 38.775L38.9258 33.835L39.8558 33.785L40.0358 38.515L40.0458 38.595C40.0658 38.9483 40.1458 39.185 40.2858 39.305C40.4258 39.4183 40.6158 39.475 40.8558 39.475H41.0558L41.1158 39.995L41.0558 40.515H40.8558ZM36.3058 34.165L37.1058 38.765L36.1958 38.955L35.3958 34.355L36.3058 34.165ZM40.959 39.475H41.749C42.069 39.475 42.3157 39.4217 42.489 39.315C42.669 39.2083 42.759 39.025 42.759 38.765C42.759 38.6317 42.7357 38.485 42.689 38.325L42.289 36.835L43.189 36.575L43.589 38.065C43.6557 38.305 43.689 38.5383 43.689 38.765C43.689 39.3117 43.5057 39.7417 43.139 40.055C42.7724 40.3617 42.309 40.515 41.749 40.515H40.959V39.475ZM41.759 34.605H42.869V35.715H41.759V34.605ZM44.9826 33.835L45.9126 33.785L46.1626 40.505L45.2426 40.545L44.9826 33.835ZM53.2198 42.875C52.8931 42.9483 52.5965 42.985 52.3298 42.985C51.8098 42.985 51.3598 42.8683 50.9798 42.635C50.5998 42.4017 50.3098 42.0717 50.1098 41.645C49.9098 41.2183 49.8098 40.7217 49.8098 40.155C49.8098 39.515 49.9365 38.835 50.1898 38.115L51.0698 38.465C50.8431 39.105 50.7298 39.6783 50.7298 40.185C50.7298 40.745 50.8665 41.1783 51.1398 41.485C51.4198 41.7917 51.8165 41.945 52.3298 41.945C52.5631 41.945 52.7898 41.9183 53.0098 41.865C53.4765 41.7583 53.8198 41.665 54.0398 41.585C54.2665 41.505 54.4431 41.3917 54.5698 41.245C54.7031 41.0983 54.7698 40.8883 54.7698 40.615C54.7698 40.5617 54.7631 40.4683 54.7498 40.335L54.3498 37.595L55.2598 37.445L55.6698 40.185C55.6965 40.4117 55.7098 40.5717 55.7098 40.665C55.7098 41.1117 55.6065 41.4783 55.3998 41.765C55.1998 42.0517 54.9198 42.2783 54.5598 42.445C54.2065 42.6117 53.7598 42.755 53.2198 42.875ZM52.0898 36.945H53.1998V38.055H52.0898V36.945ZM58.9043 40.515C58.4577 40.515 58.1043 40.4483 57.8443 40.315C57.5843 40.1817 57.3943 39.9683 57.2743 39.675C57.1543 39.375 57.0843 38.9617 57.0643 38.435L56.8843 33.835L57.8143 33.795L57.9943 38.435C58.0077 38.755 58.0343 38.985 58.0743 39.125C58.121 39.2583 58.201 39.3517 58.3143 39.405C58.4343 39.4517 58.631 39.475 58.9043 39.475H59.0043L59.0643 39.995L59.0043 40.515H58.9043ZM58.9083 39.475H59.6983C60.0183 39.475 60.2649 39.4217 60.4383 39.315C60.6183 39.2083 60.7083 39.025 60.7083 38.765C60.7083 38.6317 60.6849 38.485 60.6383 38.325L60.2383 36.835L61.1383 36.575L61.5383 38.065C61.6049 38.305 61.6383 38.5383 61.6383 38.765C61.6383 39.3117 61.4549 39.7417 61.0883 40.055C60.7216 40.3617 60.2583 40.515 59.6983 40.515H58.9083V39.475ZM59.0983 41.395H60.1983V42.505H59.0983V41.395ZM61.4387 42.075L61.9287 41.945C62.2954 41.845 62.5787 41.7517 62.7787 41.665C62.9854 41.5783 63.1487 41.4583 63.2687 41.305C63.3954 41.1583 63.4587 40.9617 63.4587 40.715C63.4587 40.6683 63.4521 40.585 63.4387 40.465L63.0387 37.585L63.9587 37.445L64.2487 39.565L64.2787 39.775L64.3487 40.345C64.3687 40.505 64.3787 40.6517 64.3787 40.785C64.3787 41.385 64.1921 41.845 63.8187 42.165C63.4521 42.485 62.9021 42.745 62.1687 42.945L61.6787 43.075L61.4387 42.075ZM62.8287 35.255H63.9287V36.355H62.8287V35.255ZM77.0174 40.515C76.5107 40.515 76.1041 40.3417 75.7974 39.995C75.4974 40.3417 75.0841 40.515 74.5574 40.515C74.2441 40.515 73.9574 40.445 73.6974 40.305C73.7107 40.4783 73.7174 40.5983 73.7174 40.665C73.7174 41.1117 73.6141 41.4783 73.4074 41.765C73.2074 42.0517 72.9274 42.2783 72.5674 42.445C72.2141 42.6117 71.7707 42.755 71.2374 42.875C70.9107 42.9483 70.6141 42.985 70.3474 42.985C69.8274 42.985 69.3774 42.8683 68.9974 42.635C68.6174 42.4017 68.3274 42.0717 68.1274 41.645C67.9274 41.2183 67.8274 40.7217 67.8274 40.155C67.8274 39.515 67.9541 38.835 68.2074 38.115L69.0874 38.465C68.8607 39.105 68.7474 39.6783 68.7474 40.185C68.7474 40.745 68.8841 41.1783 69.1574 41.485C69.4374 41.7917 69.8341 41.945 70.3474 41.945C70.5807 41.945 70.8074 41.9183 71.0274 41.865C71.4941 41.7583 71.8374 41.665 72.0574 41.585C72.2841 41.505 72.4607 41.3917 72.5874 41.245C72.7207 41.0983 72.7874 40.8883 72.7874 40.615C72.7874 40.5617 72.7807 40.4683 72.7674 40.335L72.3674 37.595L73.2774 37.445L73.4474 38.565C73.5274 38.905 73.6474 39.1417 73.8074 39.275C73.9741 39.4083 74.2241 39.475 74.5574 39.475C74.8841 39.475 75.1007 39.4117 75.2074 39.285C75.3207 39.1517 75.3774 38.9783 75.3774 38.765V37.535H76.2474V38.765C76.2474 39.005 76.3074 39.185 76.4274 39.305C76.5541 39.4183 76.7507 39.475 77.0174 39.475C77.5641 39.475 77.8374 39.245 77.8374 38.785C77.8374 38.645 77.8141 38.495 77.7674 38.335L77.3674 36.845L78.2574 36.585L78.6574 38.075C78.7241 38.3217 78.7574 38.5617 78.7574 38.795C78.7574 39.1483 78.6774 39.455 78.5174 39.715C78.3641 39.975 78.1541 40.175 77.8874 40.315C77.6274 40.4483 77.3374 40.515 77.0174 40.515ZM74.2874 35.255H75.3274L75.3374 36.305H74.2774L74.2874 35.255ZM75.2774 33.915H76.2274V34.805H75.2774V33.915ZM76.1474 35.255H77.1974L77.2074 36.305H76.1474V35.255ZM78.5676 42.075L79.0576 41.945C79.4243 41.845 79.7076 41.7517 79.9076 41.665C80.1143 41.5783 80.2776 41.4583 80.3976 41.305C80.5243 41.1583 80.5876 40.9617 80.5876 40.715C80.5876 40.6683 80.581 40.585 80.5676 40.465L80.1676 37.585L81.0876 37.445L81.3776 39.565L81.4076 39.775L81.4776 40.345C81.4976 40.505 81.5076 40.6517 81.5076 40.785C81.5076 41.385 81.321 41.845 80.9476 42.165C80.581 42.485 80.031 42.745 79.2976 42.945L78.8076 43.075L78.5676 42.075ZM79.9576 35.255H81.0576V36.355H79.9576V35.255ZM82.9951 42.075C83.8485 41.895 84.4385 41.7517 84.7651 41.645C85.0985 41.545 85.3285 41.4117 85.4551 41.245C85.5885 41.085 85.6418 40.8417 85.6151 40.515H84.3851C83.8451 40.515 83.4151 40.3483 83.0951 40.015C82.7751 39.675 82.6151 39.2217 82.6151 38.655C82.6151 38.3017 82.6918 37.9683 82.8451 37.655C82.9985 37.335 83.2151 37.0817 83.4951 36.895C83.7751 36.7017 84.0918 36.605 84.4451 36.605C84.9585 36.605 85.3885 36.805 85.7351 37.205C86.0818 37.5983 86.2918 38.1117 86.3651 38.745L86.4451 39.475H87.0451L87.1051 39.995L87.0451 40.515H87.0151H86.5551L86.5651 40.735C86.5651 41.2217 86.4485 41.605 86.2151 41.885C85.9885 42.165 85.6451 42.3883 85.1851 42.555C84.7251 42.7283 84.0585 42.905 83.1851 43.085L82.9951 42.075ZM83.5451 38.655C83.5451 38.9283 83.6118 39.135 83.7451 39.275C83.8785 39.4083 84.0918 39.475 84.3851 39.475H85.5051L85.4351 38.865C85.3951 38.4717 85.2885 38.1717 85.1151 37.965C84.9418 37.7517 84.7185 37.645 84.4451 37.645C84.1651 37.645 83.9451 37.745 83.7851 37.945C83.6251 38.145 83.5451 38.3817 83.5451 38.655ZM86.9454 39.475H87.0554C87.2554 39.475 87.4354 39.4317 87.5954 39.345C87.7554 39.2517 87.8754 39.125 87.9554 38.965L88.7154 37.515C88.8487 37.255 89.0387 37.055 89.2854 36.915C89.532 36.7683 89.7954 36.695 90.0754 36.695C90.3354 36.695 90.5787 36.755 90.8054 36.875C91.0987 37.0283 91.3154 37.235 91.4554 37.495C91.602 37.755 91.6754 38.055 91.6754 38.395C91.6754 38.855 91.5554 39.3417 91.3154 39.855C91.2154 40.075 91.0687 40.2483 90.8754 40.375C90.6887 40.5017 90.482 40.565 90.2554 40.565C90.0687 40.565 89.892 40.5217 89.7254 40.435L88.5054 39.805C88.1254 40.2783 87.642 40.515 87.0554 40.515H86.9454V39.475ZM90.2754 39.555C90.322 39.5817 90.3687 39.595 90.4154 39.595C90.5087 39.595 90.572 39.5483 90.6054 39.455L90.7054 39.235C90.812 38.9817 90.8654 38.7517 90.8654 38.545C90.8654 38.365 90.8287 38.205 90.7554 38.065C90.682 37.9183 90.5754 37.8117 90.4354 37.745C90.3354 37.6917 90.222 37.665 90.0954 37.665C89.9554 37.665 89.822 37.705 89.6954 37.785C89.5754 37.8583 89.4787 37.9683 89.4054 38.115L89.0054 38.915L90.2754 39.555ZM92.9221 33.835L93.8521 33.785L94.1021 40.505L93.1821 40.545L92.9221 33.835Z" fill="#CBCBCB"/>
<path fill-rule="evenodd" clip-rule="evenodd" d="M137.606 0.890015C155.782 0.890015 166.202 11.3098 166.202 29.4857C166.202 37.5697 164.141 44.1194 160.253 48.9005C154.528 55.9404 146.68 43.9068 137.606 43.9068C101.862 43.9068 101.862 0.890015 137.606 0.890015ZM137.606 12.4556C125.852 12.4556 121.72 16.1767 121.72 23.0557C121.72 29.9348 125.852 31.2729 137.606 31.2729C149.36 31.2729 153.493 29.9348 153.493 23.0557C153.493 16.1767 149.36 12.4556 137.606 12.4556Z" fill="url(#paint11_linear_9_201)"/>
<defs>
<linearGradient id="paint0_linear_9_201" x1="32.0111" y1="7.48499" x2="42.5761" y2="42.3429" gradientUnits="userSpaceOnUse">
<stop stop-color="#4AA8FF"/>
<stop offset="1" stop-color="#70BAFF"/>
</linearGradient>
<linearGradient id="paint1_linear_9_201" x1="32.0111" y1="7.48499" x2="42.5761" y2="42.3429" gradientUnits="userSpaceOnUse">
<stop stop-color="#4AA8FF"/>
<stop offset="1" stop-color="#70BAFF"/>
</linearGradient>
<linearGradient id="paint2_linear_9_201" x1="32.0111" y1="7.48499" x2="42.5761" y2="42.3429" gradientUnits="userSpaceOnUse">
<stop stop-color="#4AA8FF"/>
<stop offset="1" stop-color="#70BAFF"/>
</linearGradient>
<linearGradient id="paint3_linear_9_201" x1="32.0111" y1="7.48499" x2="42.5761" y2="42.3429" gradientUnits="userSpaceOnUse">
<stop stop-color="#4AA8FF"/>
<stop offset="1" stop-color="#70BAFF"/>
</linearGradient>
<linearGradient id="paint4_linear_9_201" x1="32.0111" y1="7.48499" x2="42.5761" y2="42.3429" gradientUnits="userSpaceOnUse">
<stop stop-color="#4AA8FF"/>
<stop offset="1" stop-color="#70BAFF"/>
</linearGradient>
<linearGradient id="paint5_linear_9_201" x1="32.0111" y1="7.48499" x2="42.5761" y2="42.3429" gradientUnits="userSpaceOnUse">
<stop stop-color="#4AA8FF"/>
<stop offset="1" stop-color="#70BAFF"/>
</linearGradient>
<linearGradient id="paint6_linear_9_201" x1="32.0111" y1="7.48499" x2="42.5761" y2="42.3429" gradientUnits="userSpaceOnUse">
<stop stop-color="#4AA8FF"/>
<stop offset="1" stop-color="#70BAFF"/>
</linearGradient>
<linearGradient id="paint7_linear_9_201" x1="32.0111" y1="7.48499" x2="42.5761" y2="42.3429" gradientUnits="userSpaceOnUse">
<stop stop-color="#4AA8FF"/>
<stop offset="1" stop-color="#70BAFF"/>
</linearGradient>
<linearGradient id="paint8_linear_9_201" x1="32.0111" y1="7.48499" x2="42.5761" y2="42.3429" gradientUnits="userSpaceOnUse">
<stop stop-color="#4AA8FF"/>
<stop offset="1" stop-color="#70BAFF"/>
</linearGradient>
<linearGradient id="paint9_linear_9_201" x1="32.0111" y1="7.48499" x2="42.5761" y2="42.3429" gradientUnits="userSpaceOnUse">
<stop stop-color="#4AA8FF"/>
<stop offset="1" stop-color="#70BAFF"/>
</linearGradient>
<linearGradient id="paint10_linear_9_201" x1="32.0111" y1="7.48499" x2="42.5761" y2="42.3429" gradientUnits="userSpaceOnUse">
<stop stop-color="#4AA8FF"/>
<stop offset="1" stop-color="#70BAFF"/>
</linearGradient>
<linearGradient id="paint11_linear_9_201" x1="110.798" y1="0.890015" x2="160.777" y2="56.0275" gradientUnits="userSpaceOnUse">
<stop stop-color="#4AA8FF"/>
<stop offset="1" stop-color="#70BAFF"/>
</linearGradient>
</defs>
</svg>
