<svg width="88" height="32" viewBox="0 0 88 32" fill="none" xmlns="http://www.w3.org/2000/svg">
<path d="M21.8839 17.9191H21.9428V15.7692C21.8848 15.776 21.826 15.7794 21.7663 15.7794V17.9173C21.8053 17.9185 21.8445 17.9191 21.8839 17.9191Z" fill="url(#paint0_linear_117_54)"/>
<path d="M14.1413 15.7794V17.9412H16.781V15.7868C16.8132 15.7868 16.845 15.7858 16.8766 15.7839V15.7794H14.1413Z" fill="url(#paint1_linear_117_54)"/>
<path d="M14.1413 17.9412V15.7794H14.0604V17.9412H14.1413Z" fill="url(#paint2_linear_117_54)"/>
<path d="M11.406 15.7794V17.9412H14.0604V15.7794H11.406Z" fill="url(#paint3_linear_117_54)"/>
<path d="M16.8766 17.9412V15.7839C16.845 15.7858 16.8132 15.7868 16.781 15.7868V17.9412H16.8766Z" fill="url(#paint4_linear_117_54)"/>
<path d="M8.58982 15.7794V17.9412H8.68541V15.7794H8.58982Z" fill="url(#paint5_linear_117_54)"/>
<path fill-rule="evenodd" clip-rule="evenodd" d="M25.3913 14.3382V13.625H23.2222V14.3382C23.2222 14.5392 23.183 14.7279 23.1045 14.9044C23.0261 15.076 22.9207 15.2279 22.7883 15.3603C22.656 15.4877 22.5016 15.5907 22.3251 15.6691C22.2024 15.7202 22.0749 15.7536 21.9428 15.7692V15.75H21.8839C21.683 15.75 21.4942 15.7132 21.3178 15.6397C21.1413 15.5613 20.9869 15.4583 20.8545 15.3309C20.7222 15.1985 20.6168 15.0441 20.5383 14.8676C20.4648 14.6912 20.4281 14.5025 20.4281 14.3015V13.5H18.2295V14.3309C18.2295 14.5319 18.1903 14.7206 18.1119 14.8971C18.0383 15.0735 17.9354 15.2279 17.8031 15.3603C17.6756 15.4926 17.5236 15.598 17.3472 15.6765C17.199 15.7382 17.0421 15.7741 16.8766 15.7839V17.9412H16.781V17.9485C17.2859 17.9485 17.7565 17.8529 18.1928 17.6618C18.6339 17.4706 19.0187 17.2083 19.3472 16.875C19.6756 17.1985 20.0555 17.4534 20.4869 17.6397C20.8884 17.8112 21.3149 17.9037 21.7663 17.9173V17.9412C22.2614 17.9412 22.7295 17.848 23.1707 17.6618C23.6119 17.4706 23.9967 17.2132 24.3251 16.8897C24.6535 16.5613 24.9133 16.1789 25.1045 15.7426C25.2957 15.3015 25.3913 14.8333 25.3913 14.3382ZM21.7663 17.9173V15.7794C21.826 15.7794 21.8848 15.776 21.9428 15.7692V17.9191H21.8839C21.8445 17.9191 21.8053 17.9185 21.7663 17.9173ZM23.2148 9.10294C23.0629 9.03431 22.8986 9 22.7222 9C22.5457 9 22.379 9.03431 22.2222 9.10294C22.0702 9.17157 21.9354 9.26471 21.8178 9.38235C21.705 9.4951 21.6168 9.6299 21.5531 9.78676C21.4844 9.94363 21.4501 10.1103 21.4501 10.2868C21.4501 10.4632 21.4844 10.6299 21.5531 10.7868C21.6168 10.9387 21.705 11.0735 21.8178 11.1912C21.9354 11.3039 22.0702 11.3946 22.2222 11.4632C22.379 11.527 22.5457 11.5588 22.7222 11.5588C22.8986 11.5588 23.0629 11.527 23.2148 11.4632C23.3668 11.3946 23.4991 11.3039 23.6119 11.1912C23.7295 11.0735 23.8202 10.9387 23.8839 10.7868C23.9526 10.6299 23.9869 10.4632 23.9869 10.2868C23.9869 10.1103 23.9526 9.94363 23.8839 9.78676C23.8202 9.6299 23.7295 9.4951 23.6119 9.38235C23.4991 9.26471 23.3668 9.17157 23.2148 9.10294ZM26.2001 9.10294C26.0481 9.03431 25.8839 9 25.7075 9C25.531 9 25.3643 9.03431 25.2075 9.10294C25.0555 9.17157 24.9207 9.26471 24.8031 9.38235C24.6903 9.4951 24.5996 9.6299 24.531 9.78676C24.4673 9.94363 24.4354 10.1103 24.4354 10.2868C24.4354 10.4632 24.4673 10.6299 24.531 10.7868C24.5996 10.9387 24.6903 11.0735 24.8031 11.1912C24.9207 11.3039 25.0555 11.3946 25.2075 11.4632C25.3643 11.527 25.531 11.5588 25.7075 11.5588C25.8839 11.5588 26.0481 11.527 26.2001 11.4632C26.3521 11.3946 26.4844 11.3039 26.5972 11.1912C26.7148 11.0735 26.8055 10.9387 26.8692 10.7868C26.9379 10.6299 26.9722 10.4632 26.9722 10.2868C26.9722 10.1103 26.9379 9.94363 26.8692 9.78676C26.8055 9.6299 26.7148 9.4951 26.5972 9.38235C26.4844 9.26471 26.3521 9.17157 26.2001 9.10294ZM18.2589 18.6691C18.107 18.6005 17.9428 18.5662 17.7663 18.5662C17.5898 18.5662 17.4232 18.6005 17.2663 18.6691C17.1143 18.7377 16.9795 18.8284 16.8619 18.9412C16.7491 19.0588 16.6609 19.1961 16.5972 19.3529C16.5285 19.5098 16.4942 19.6765 16.4942 19.8529C16.4942 20.0294 16.5285 20.1936 16.5972 20.3456C16.6609 20.5025 16.7491 20.6373 16.8619 20.75C16.9795 20.8676 17.1143 20.9583 17.2663 21.0221C17.4232 21.0907 17.5898 21.125 17.7663 21.125C17.9428 21.125 18.107 21.0907 18.2589 21.0221C18.4109 20.9583 18.5432 20.8676 18.656 20.75C18.7736 20.6373 18.8643 20.5025 18.9281 20.3456C18.9967 20.1936 19.031 20.0294 19.031 19.8529C19.031 19.6765 18.9967 19.5098 18.9281 19.3529C18.8643 19.1961 18.7736 19.0588 18.656 18.9412C18.5432 18.8284 18.4109 18.7377 18.2589 18.6691ZM21.2442 18.6691C21.0923 18.6005 20.9281 18.5662 20.7516 18.5662C20.5751 18.5662 20.4084 18.6005 20.2516 18.6691C20.0996 18.7377 19.9648 18.8284 19.8472 18.9412C19.7344 19.0588 19.6437 19.1961 19.5751 19.3529C19.5114 19.5098 19.4795 19.6765 19.4795 19.8529C19.4795 20.0294 19.5114 20.1936 19.5751 20.3456C19.6437 20.5025 19.7344 20.6373 19.8472 20.75C19.9648 20.8676 20.0996 20.9583 20.2516 21.0221C20.4084 21.0907 20.5751 21.125 20.7516 21.125C20.9281 21.125 21.0923 21.0907 21.2442 21.0221C21.3962 20.9583 21.5285 20.8676 21.6413 20.75C21.7589 20.6373 21.8496 20.5025 21.9133 20.3456C21.982 20.1936 22.0163 20.0294 22.0163 19.8529C22.0163 19.6765 21.982 19.5098 21.9133 19.3529C21.8496 19.1961 21.7589 19.0588 21.6413 18.9412C21.5285 18.8284 21.3962 18.7377 21.2442 18.6691ZM8.68541 15.7794H11.3251V17.9412H8.68541V15.7794ZM8.68541 15.7794H8.58982V17.9412H8.68541V17.9485H4.28835C4.09717 17.9534 3.9158 17.9926 3.74423 18.0662C3.57757 18.1446 3.43051 18.25 3.30306 18.3824C3.18051 18.5147 3.08247 18.6667 3.00894 18.8382C2.94031 19.0098 2.906 19.1936 2.906 19.3897C2.906 19.5907 2.94276 19.7794 3.01629 19.9559C3.09472 20.1324 3.19766 20.2843 3.32512 20.4118C3.45747 20.5441 3.60943 20.6471 3.781 20.7206C3.95747 20.799 4.14619 20.8382 4.34717 20.8382H7.44276V23H4.34717C3.85208 23 3.38639 22.9044 2.95012 22.7132C2.51384 22.527 2.13149 22.2696 1.80306 21.9412C1.47953 21.6127 1.22218 21.2304 1.031 20.7941C0.844724 20.3578 0.751587 19.8897 0.751587 19.3897C0.751587 18.9044 0.839822 18.4461 1.01629 18.0147C1.19767 17.5833 1.44276 17.2059 1.75159 16.8824C2.06531 16.5539 2.43296 16.2917 2.85453 16.0956C3.2761 15.8995 3.72953 15.7917 4.21482 15.7721H4.48688C4.68296 15.7721 4.86923 15.7353 5.0457 15.6618C5.22217 15.5833 5.37659 15.4804 5.50894 15.3529C5.64129 15.2206 5.74423 15.0686 5.81776 14.8971C5.89619 14.7206 5.93541 14.5343 5.93541 14.3382C5.93541 14.1324 5.89619 13.9412 5.81776 13.7647C5.73933 13.5882 5.63394 13.4338 5.50159 13.3015C5.36923 13.1691 5.21482 13.0662 5.03835 12.9926C4.86188 12.9142 4.67315 12.875 4.47217 12.875H4.34717C4.14619 12.875 3.95747 12.9142 3.781 12.9926C3.60943 13.0662 3.45747 13.1691 3.32512 13.3015C3.19766 13.4338 3.09472 13.5882 3.01629 13.7647C2.94276 13.9412 2.906 14.1324 2.906 14.3382H0.751587C0.751587 13.8382 0.844724 13.3676 1.031 12.9265C1.22218 12.4853 1.47953 12.1029 1.80306 11.7794C2.13149 11.451 2.51384 11.1912 2.95012 11C3.38639 10.8088 3.85208 10.7132 4.34717 10.7132H4.47217C4.97217 10.7132 5.44031 10.8088 5.87659 11C6.31776 11.1912 6.70257 11.451 7.031 11.7794C7.35943 12.1029 7.61923 12.4853 7.81041 12.9265C8.00159 13.3676 8.09717 13.8382 8.09717 14.3382C8.09717 14.5931 8.07021 14.8407 8.01629 15.0809C7.96237 15.3162 7.88639 15.5466 7.78835 15.7721H8.68541V15.7794ZM4.70747 18.4632C4.83982 18.4632 4.96237 18.4877 5.07511 18.5368C5.18786 18.5907 5.28835 18.6593 5.37659 18.7426C5.46482 18.8309 5.53345 18.9338 5.58247 19.0515C5.63149 19.1691 5.656 19.2941 5.656 19.4265C5.656 19.5588 5.63149 19.6838 5.58247 19.8015C5.53345 19.9191 5.46482 20.0196 5.37659 20.1029C5.28835 20.1912 5.18786 20.2598 5.07511 20.3088C4.96237 20.3578 4.83982 20.3824 4.70747 20.3824C4.57512 20.3824 4.45011 20.3578 4.33247 20.3088C4.21972 20.2598 4.11923 20.1912 4.031 20.1029C3.94766 20.0196 3.87904 19.9191 3.82512 19.8015C3.7761 19.6838 3.75159 19.5588 3.75159 19.4265C3.75159 19.2941 3.7761 19.1691 3.82512 19.0515C3.87904 18.9338 3.94766 18.8309 4.031 18.7426C4.11923 18.6593 4.21972 18.5907 4.33247 18.5368C4.45011 18.4877 4.57512 18.4632 4.70747 18.4632ZM6.75894 18.4632C6.89129 18.4632 7.01384 18.4877 7.12658 18.5368C7.23933 18.5907 7.33737 18.6593 7.4207 18.7426C7.50894 18.8309 7.57757 18.9338 7.62659 19.0515C7.68051 19.1691 7.70747 19.2941 7.70747 19.4265C7.70747 19.5588 7.68051 19.6838 7.62659 19.8015C7.57757 19.9191 7.50894 20.0196 7.4207 20.1029C7.33737 20.1912 7.23933 20.2598 7.12658 20.3088C7.01384 20.3578 6.89129 20.3824 6.75894 20.3824C6.62659 20.3824 6.50159 20.3578 6.38394 20.3088C6.27119 20.2598 6.1707 20.1912 6.08247 20.1029C5.99423 20.0196 5.92561 19.9191 5.87659 19.8015C5.82757 19.6838 5.80306 19.5588 5.80306 19.4265C5.80306 19.2941 5.82757 19.1691 5.87659 19.0515C5.92561 18.9338 5.99423 18.8309 6.08247 18.7426C6.1707 18.6593 6.27119 18.5907 6.38394 18.5368C6.50159 18.4877 6.62659 18.4632 6.75894 18.4632ZM8.86923 18.4632C9.00158 18.4632 9.12413 18.4877 9.23688 18.5368C9.34962 18.5907 9.44766 18.6593 9.531 18.7426C9.61923 18.8309 9.68786 18.9338 9.73688 19.0515C9.7908 19.1691 9.81776 19.2941 9.81776 19.4265C9.81776 19.5588 9.7908 19.6838 9.73688 19.8015C9.68786 19.9191 9.61923 20.0196 9.531 20.1029C9.44766 20.1912 9.34962 20.2598 9.23688 20.3088C9.12413 20.3578 9.00158 20.3824 8.86923 20.3824C8.73688 20.3824 8.61188 20.3578 8.49423 20.3088C8.38149 20.2598 8.281 20.1912 8.19276 20.1029C8.10453 20.0196 8.0359 19.9191 7.98688 19.8015C7.93786 19.6838 7.91335 19.5588 7.91335 19.4265C7.91335 19.2941 7.93786 19.1691 7.98688 19.0515C8.0359 18.9338 8.10453 18.8309 8.19276 18.7426C8.281 18.6593 8.38149 18.5907 8.49423 18.5368C8.61188 18.4877 8.73688 18.4632 8.86923 18.4632Z" fill="url(#paint6_linear_117_54)"/>
<path d="M11.406 17.9412V15.7794H11.3251V17.9412H11.406Z" fill="url(#paint7_linear_117_54)"/>
<path fill-rule="evenodd" clip-rule="evenodd" d="M36.3089 14.6397C36.2892 14.7328 36.2598 14.826 36.2206 14.9191L36.0368 15.2059C35.9093 15.3824 35.7451 15.527 35.5441 15.6397C35.3432 15.7475 35.125 15.8015 34.8897 15.8015C34.6888 15.8015 34.5 15.7647 34.3236 15.6912C34.1471 15.6127 33.9927 15.5074 33.8603 15.375C33.728 15.2426 33.6226 15.0882 33.5441 14.9118C33.4706 14.7353 33.4339 14.5466 33.4339 14.3456C33.4339 14.1397 33.4706 13.9485 33.5441 13.7721C33.6226 13.5956 33.728 13.4436 33.8603 13.3162C33.9927 13.1838 34.1471 13.0809 34.3236 13.0074C34.5 12.9289 34.6888 12.8897 34.8897 12.8897C35.0858 12.8897 35.2721 12.9289 35.4486 13.0074C35.625 13.0809 35.7794 13.1838 35.9118 13.3162C36.0441 13.4436 36.1471 13.5956 36.2206 13.7721C36.299 13.9485 36.3383 14.1397 36.3383 14.3456C36.3383 14.4436 36.3285 14.5417 36.3089 14.6397ZM39.0477 17.9338H39.0589C39.4622 17.9076 39.847 17.8164 40.2133 17.6618C40.6544 17.4706 41.0392 17.2132 41.3677 16.8897C41.6961 16.5613 41.9559 16.1789 42.1471 15.7426C42.3383 15.3015 42.4339 14.8333 42.4339 14.3382V13.625H40.2647V14.3382C40.2647 14.5392 40.2255 14.7279 40.1471 14.9044C40.0687 15.076 39.9633 15.2279 39.8309 15.3603C39.6986 15.4877 39.5441 15.5907 39.3677 15.6691C39.2556 15.7158 39.1397 15.7477 39.0197 15.7647H38.2206C38.4167 15.3186 38.5147 14.8456 38.5147 14.3456C38.5147 13.8456 38.4191 13.375 38.228 12.9338C38.0368 12.4926 37.777 12.1103 37.4486 11.7868C37.1201 11.4583 36.7353 11.1985 36.2941 11.0074C35.853 10.8162 35.3848 10.7206 34.8897 10.7206C34.3946 10.7206 33.9265 10.8162 33.4853 11.0074C33.0441 11.1985 32.6593 11.4583 32.3309 11.7868C32.0025 12.1103 31.7427 12.4926 31.5515 12.9338C31.3603 13.375 31.2647 13.8456 31.2647 14.3456C31.2647 14.8064 31.3456 15.2426 31.5074 15.6544C31.6741 16.0662 31.902 16.4338 32.1912 16.7574C32.4804 17.076 32.8211 17.3407 33.2133 17.5515C33.6054 17.7574 34.0294 17.8848 34.4853 17.9338L33.4044 19.8088L35.2794 20.8897L36.9706 17.9338H38.8089V17.9412C38.8892 17.9412 38.9688 17.9387 39.0477 17.9338ZM39.0477 17.9338H39.0589V15.7647H39.0197C38.9507 15.7745 38.8805 15.7794 38.8089 15.7794V17.9338H39.0477ZM40.2427 18.6691C40.0907 18.6005 39.9265 18.5662 39.75 18.5662C39.5736 18.5662 39.4069 18.6005 39.25 18.6691C39.0981 18.7377 38.9633 18.8284 38.8456 18.9412C38.7329 19.0588 38.6446 19.1961 38.5809 19.3529C38.5123 19.5098 38.478 19.6765 38.478 19.8529C38.478 20.0294 38.5123 20.1936 38.5809 20.3456C38.6446 20.5025 38.7329 20.6373 38.8456 20.75C38.9633 20.8676 39.0981 20.9583 39.25 21.0221C39.4069 21.0907 39.5736 21.125 39.75 21.125C39.9265 21.125 40.0907 21.0907 40.2427 21.0221C40.3946 20.9583 40.527 20.8676 40.6397 20.75C40.7574 20.6373 40.8481 20.5025 40.9118 20.3456C40.9804 20.1936 41.0147 20.0294 41.0147 19.8529C41.0147 19.6765 40.9804 19.5098 40.9118 19.3529C40.8481 19.1961 40.7574 19.0588 40.6397 18.9412C40.527 18.8284 40.3946 18.7377 40.2427 18.6691ZM43.228 18.6691C43.076 18.6005 42.9118 18.5662 42.7353 18.5662C42.5589 18.5662 42.3922 18.6005 42.2353 18.6691C42.0834 18.7377 41.9486 18.8284 41.8309 18.9412C41.7182 19.0588 41.6275 19.1961 41.5589 19.3529C41.4951 19.5098 41.4633 19.6765 41.4633 19.8529C41.4633 20.0294 41.4951 20.1936 41.5589 20.3456C41.6275 20.5025 41.7182 20.6373 41.8309 20.75C41.9486 20.8676 42.0834 20.9583 42.2353 21.0221C42.3922 21.0907 42.5589 21.125 42.7353 21.125C42.9118 21.125 43.076 21.0907 43.228 21.0221C43.3799 20.9583 43.5123 20.8676 43.625 20.75C43.7427 20.6373 43.8334 20.5025 43.8971 20.3456C43.9657 20.1936 44 20.0294 44 19.8529C44 19.6765 43.9657 19.5098 43.8971 19.3529C43.8334 19.1961 43.7427 19.0588 43.625 18.9412C43.5123 18.8284 43.3799 18.7377 43.228 18.6691Z" fill="url(#paint8_linear_117_54)"/>
<path d="M39.0477 17.9338H39.0589V15.7647H39.0197C38.9507 15.7745 38.8805 15.7794 38.8089 15.7794V17.9338H39.0477Z" fill="url(#paint9_linear_117_54)"/>
<path d="M25.222 19.8033L27.1151 20.8962C28.1406 19.0298 30.2647 15.7738 30.2647 13.5714H28.0162C28.0162 15.2906 26.0815 18.2768 25.222 19.8033Z" fill="url(#paint10_linear_117_54)"/>
<path fill-rule="evenodd" clip-rule="evenodd" d="M69.4193 0C81.2295 0 88 6.63942 88 18.221C88 23.3721 86.6606 27.5456 84.1343 30.5921C80.4143 35.0779 75.3153 27.4101 69.4193 27.4101C46.1936 27.4101 46.1936 0 69.4193 0ZM69.4193 7.36957C61.7819 7.36957 59.0966 9.74059 59.0966 14.1239C59.0966 18.5072 61.7819 19.3599 69.4193 19.3599C77.0566 19.3599 79.7419 18.5072 79.7419 14.1239C79.7419 9.74059 77.0566 7.36957 69.4193 7.36957Z" fill="url(#paint11_linear_117_54)"/>
<defs>
<linearGradient id="paint0_linear_117_54" x1="0.751587" y1="9" x2="8.95579" y2="34.3442" gradientUnits="userSpaceOnUse">
<stop stop-color="#4AA8FF"/>
<stop offset="1" stop-color="#70BAFF"/>
</linearGradient>
<linearGradient id="paint1_linear_117_54" x1="0.751587" y1="9" x2="8.95579" y2="34.3442" gradientUnits="userSpaceOnUse">
<stop stop-color="#4AA8FF"/>
<stop offset="1" stop-color="#70BAFF"/>
</linearGradient>
<linearGradient id="paint2_linear_117_54" x1="0.751587" y1="9" x2="8.95579" y2="34.3442" gradientUnits="userSpaceOnUse">
<stop stop-color="#4AA8FF"/>
<stop offset="1" stop-color="#70BAFF"/>
</linearGradient>
<linearGradient id="paint3_linear_117_54" x1="0.751587" y1="9" x2="8.95579" y2="34.3442" gradientUnits="userSpaceOnUse">
<stop stop-color="#4AA8FF"/>
<stop offset="1" stop-color="#70BAFF"/>
</linearGradient>
<linearGradient id="paint4_linear_117_54" x1="0.751587" y1="9" x2="8.95579" y2="34.3442" gradientUnits="userSpaceOnUse">
<stop stop-color="#4AA8FF"/>
<stop offset="1" stop-color="#70BAFF"/>
</linearGradient>
<linearGradient id="paint5_linear_117_54" x1="0.751587" y1="9" x2="8.95579" y2="34.3442" gradientUnits="userSpaceOnUse">
<stop stop-color="#4AA8FF"/>
<stop offset="1" stop-color="#70BAFF"/>
</linearGradient>
<linearGradient id="paint6_linear_117_54" x1="0.751587" y1="9" x2="8.95579" y2="34.3442" gradientUnits="userSpaceOnUse">
<stop stop-color="#4AA8FF"/>
<stop offset="1" stop-color="#70BAFF"/>
</linearGradient>
<linearGradient id="paint7_linear_117_54" x1="0.751587" y1="9" x2="8.95579" y2="34.3442" gradientUnits="userSpaceOnUse">
<stop stop-color="#4AA8FF"/>
<stop offset="1" stop-color="#70BAFF"/>
</linearGradient>
<linearGradient id="paint8_linear_117_54" x1="0.751587" y1="9" x2="8.95579" y2="34.3442" gradientUnits="userSpaceOnUse">
<stop stop-color="#4AA8FF"/>
<stop offset="1" stop-color="#70BAFF"/>
</linearGradient>
<linearGradient id="paint9_linear_117_54" x1="0.751587" y1="9" x2="8.95579" y2="34.3442" gradientUnits="userSpaceOnUse">
<stop stop-color="#4AA8FF"/>
<stop offset="1" stop-color="#70BAFF"/>
</linearGradient>
<linearGradient id="paint10_linear_117_54" x1="0.751587" y1="9" x2="8.95579" y2="34.3442" gradientUnits="userSpaceOnUse">
<stop stop-color="#4AA8FF"/>
<stop offset="1" stop-color="#70BAFF"/>
</linearGradient>
<linearGradient id="paint11_linear_117_54" x1="52" y1="0" x2="83.7793" y2="35.7517" gradientUnits="userSpaceOnUse">
<stop stop-color="#4AA8FF"/>
<stop offset="1" stop-color="#70BAFF"/>
</linearGradient>
</defs>
</svg>
