<svg width="32" height="32" viewBox="0 0 32 32" fill="none" xmlns="http://www.w3.org/2000/svg">
<path fill-rule="evenodd" clip-rule="evenodd" d="M29 9.00001C29 8.44805 28.552 8.00047 28 8.00002V8.00002L12 8C11.4477 8 11 8.44771 11 8.99999V8.99999C11 9.55195 11.448 9.99953 12 9.99998V9.99998L28 10V10C28.5523 10 29 9.55229 29 9.00001V9.00001Z" fill="#24253C"/>
<path fill-rule="evenodd" clip-rule="evenodd" d="M29 15.8854C29 15.3968 28.6041 15.0005 28.1154 15V15L7.00004 15C6.44773 15 6 15.4477 6 16V16.1146C6 16.6032 6.39593 16.9995 6.88462 17V17L28.1154 17V17C28.6039 17 29 16.6039 29 16.1154V15.8854Z" fill="#24253C"/>
<path fill-rule="evenodd" clip-rule="evenodd" d="M29 23.0003C29 22.4483 28.5525 22.0008 28.0005 22.0008L17.9997 22.0001C17.4476 22 17 22.4476 17 22.9997V22.9997C17 23.5517 17.4475 23.9992 17.9995 23.9992L28.0003 23.9999C28.5524 24 29 23.5524 29 23.0003V23.0003Z" fill="#24253C"/>
</svg>
