<svg width="24" height="20" viewBox="0 0 24 20" fill="none" xmlns="http://www.w3.org/2000/svg">
<path fill-rule="evenodd" clip-rule="evenodd" d="M11.507 4.21659C5.40289 6.53491 0.357697 8.46452 0.295481 8.50461C0.144731 8.60184 0.00469956 8.83509 0.0045171 8.98933C0.00424343 9.17895 0.115858 9.40188 0.261454 9.50252C0.333294 9.55217 1.5928 10.0322 3.06039 10.5692C4.52799 11.1063 5.751 11.5686 5.77824 11.5967C5.80542 11.6247 6.28499 13.1021 6.84393 14.8798C7.40287 16.6574 7.89212 18.1799 7.93112 18.263C7.97016 18.3462 8.06531 18.4522 8.14258 18.4985C8.3009 18.5936 8.62502 18.6105 8.77491 18.5315C8.82887 18.5031 9.53053 17.9515 10.3341 17.3057C12.089 15.8956 12.0302 15.9388 12.2678 15.8862C12.6432 15.8032 12.7165 15.8455 14.9227 17.4214C18.7943 20.1867 18.5122 19.9972 18.757 19.9972C19.0106 19.9972 19.1897 19.8872 19.311 19.6569C19.4319 19.4274 23.3722 0.692479 23.3376 0.511302C23.285 0.235451 22.9912 -0.00381449 22.7096 4.608e-05C22.6523 0.000809216 17.6112 1.89823 11.507 4.21659ZM18.286 4.18239C18.3161 4.21201 18.3407 4.26912 18.3407 4.30929C18.3407 4.34947 16.6633 5.91605 14.6132 7.79054C9.62664 12.3499 9.42922 12.5344 9.2964 12.7574C9.12061 13.0526 9.05315 13.3502 8.89651 14.5206C8.81441 15.1341 8.72451 15.6415 8.6877 15.699C8.62083 15.8035 8.43167 15.8344 8.3128 15.7603C8.27896 15.7392 7.98316 14.8052 7.65548 13.6848C7.02242 11.5204 6.98606 11.3309 7.13782 10.9865C7.17837 10.8944 7.27817 10.7572 7.35959 10.6817C7.54227 10.5121 18.0623 4.12991 18.1605 4.1291C18.1994 4.12879 18.2559 4.15276 18.286 4.18239Z" fill="#CBCBCB"/>
</svg>
