<svg width="25" height="20" viewBox="0 0 25 20" fill="none" xmlns="http://www.w3.org/2000/svg">
<path fill-rule="evenodd" clip-rule="evenodd" d="M16.8784 0.0102052C14.7517 0.227923 12.9924 1.74709 12.4718 3.81528C12.3578 4.26839 12.3205 4.6256 12.3314 5.161C12.3395 5.5562 12.3688 5.83492 12.4296 6.0958L12.4513 6.18883H12.3844C12.3476 6.18883 12.2214 6.18139 12.1039 6.17229C9.08418 5.93864 6.28829 4.80149 3.96306 2.86127C3.34604 2.3464 2.64872 1.65047 2.16597 1.06772C2.08227 0.96667 2.03544 0.921871 2.02368 0.931625C1.99402 0.956249 1.76992 1.4205 1.69297 1.6168C1.55344 1.97265 1.44839 2.38691 1.38761 2.821C1.34805 3.10351 1.34797 3.7963 1.38746 4.08393C1.52778 5.1061 1.92322 5.9957 2.57378 6.75278C2.8194 7.0386 3.18692 7.37238 3.4906 7.5854C3.54514 7.62365 3.58974 7.65603 3.58974 7.65736C3.58974 7.66431 3.35026 7.64613 3.17191 7.62567C2.59351 7.55928 1.99792 7.382 1.50073 7.12825C1.40462 7.07919 1.31985 7.03635 1.31234 7.03303C1.29513 7.0254 1.3131 7.40368 1.34249 7.66769C1.44227 8.56409 1.80676 9.46286 2.3611 10.1795C3.04957 11.0695 4.02324 11.7111 5.10427 11.987C5.23392 12.0201 5.334 12.0508 5.32667 12.0553C5.30192 12.0704 4.949 12.1449 4.78914 12.1687C4.26681 12.2466 3.54641 12.237 3.14039 12.1467C3.07014 12.1311 3.0689 12.1152 3.15663 12.3526C3.57956 13.4969 4.42713 14.4675 5.51195 15.0499C5.86816 15.2411 6.39142 15.4371 6.76695 15.5199C7.01801 15.5753 7.3592 15.6231 7.59351 15.6357L7.78955 15.6462L7.73496 15.6927C7.63504 15.778 7.15905 16.1112 6.94169 16.2481C5.50507 17.1531 3.89264 17.672 2.16 17.787C1.72221 17.8161 0.744763 17.7937 0.388709 17.7464C0.328739 17.7385 0.326944 17.7394 0.356937 17.7628C0.411379 17.8054 0.981385 18.1417 1.21478 18.2691C2.85872 19.1659 4.71258 19.7396 6.58032 19.9295C7.15504 19.9879 7.41996 20.0002 8.09343 20C8.90201 19.9997 9.43278 19.9668 10.1348 19.8734C13.7072 19.3981 16.754 17.7229 19.0316 14.9817C21.233 12.3323 22.479 8.85661 22.4438 5.46387L22.4386 4.96928L22.6133 4.83793C23.3726 4.26712 24.0406 3.59884 24.6147 2.83571C24.7727 2.62569 24.9406 2.38569 24.9406 2.36983C24.9406 2.36556 24.8994 2.38025 24.8492 2.40251C24.169 2.70384 23.2885 2.9603 22.4941 3.08848C22.0006 3.16812 22.0304 3.17532 22.249 3.02926C22.5424 2.83321 22.7652 2.64785 23.0422 2.36952C23.4895 1.92 23.7909 1.48717 24.0611 0.906732C24.1389 0.739452 24.2799 0.375123 24.2701 0.366687C24.2675 0.364463 24.1975 0.401525 24.1145 0.44904C23.8912 0.576843 23.3754 0.833688 23.1216 0.94346C22.54 1.19502 21.9339 1.39065 21.2945 1.53321L21.0718 1.58286L20.9211 1.43709C20.1305 0.672191 19.192 0.207271 18.1016 0.0404045C17.9265 0.0136207 17.788 0.00521694 17.4503 0.000959486C17.2144 -0.0020112 16.957 0.00215095 16.8784 0.0102052Z" fill="#CBCBCB"/>
</svg>
